<?xml version="1.0" encoding="utf-8"?>
<!-- Generator: Adobe Illustrator 20.1.0, SVG Export Plug-In . SVG Version: 6.00 Build 0)  -->
<svg version="1.1" id="Layer_1" xmlns="http://www.w3.org/2000/svg" xmlns:xlink="http://www.w3.org/1999/xlink" x="0px" y="0px"
	 viewBox="0 0 205 158" style="enable-background:new 0 0 205 158;" xml:space="preserve">
<style type="text/css">
	.st0{fill:#EDF4FE;}
	.st1{fill:#F7931E;stroke:#000000;stroke-width:3;stroke-miterlimit:10;}
	.st2{fill:#0055AA;stroke:#000000;stroke-width:2;stroke-miterlimit:10;}
	.st3{fill:#F15A24;}
	.st4{fill:#0088FF;stroke:#000000;stroke-width:3;stroke-miterlimit:10;}
	.st5{fill:#003366;stroke:#000000;stroke-width:3;stroke-miterlimit:10;}
	.st6{fill:#00FF00;stroke:#000000;stroke-width:3;stroke-miterlimit:10;}
	.st7{fill:#FF0000;stroke:#000000;stroke-width:3;stroke-miterlimit:10;}
	.st8{fill:#0000FF;stroke:#000000;stroke-width:3;stroke-miterlimit:10;}
	.st9{fill:#55BBFF;stroke:#020202;stroke-width:3;stroke-miterlimit:10;}
	.st10{fill:#A3BCCC;stroke:#000000;stroke-width:3;stroke-miterlimit:10;}
	.st11{fill:#7AC943;stroke:#000000;stroke-width:3;stroke-miterlimit:10;}
	.st12{fill:#58595B;}
</style>
<rect class="st0" width="205" height="158"/>
<path d="M172.5,79.5c0-0.3,0-0.6,0-0.9c0-1.4-0.3-2.6-0.8-3.9c-0.1-0.3-16.8-40.9-16.8-40.9c-1.4-3.3-4-5.9-7.3-7.3
	c0,0-40.6-16.7-40.9-16.8c-1.2-0.4-2.5-0.7-3.9-0.8c-0.3,0-0.6,0-0.9,0c-1.3,0-2.6,0.3-3.8,0.8c-0.3,0.1-40.9,16.8-40.9,16.8
	c-3.3,1.4-5.9,4-7.3,7.3c0,0-16.7,40.6-16.8,40.9c-0.4,1.2-0.7,2.5-0.8,3.9c0,0.3,0,0.6,0,0.9c0,1.3,0.3,2.6,0.8,3.9
	c0.1,0.3,16.8,40.9,16.8,40.9c1.4,3.3,4,5.9,7.3,7.3c0,0,40.6,16.7,40.9,16.8c1.2,0.4,2.5,0.7,3.8,0.8c0.2,0,0.8,0,0.9,0
	c1.4,0,2.6-0.3,3.9-0.8c0.3-0.1,40.9-16.7,40.9-16.7c3.3-1.4,5.9-4,7.3-7.3c0,0,16.7-40.6,16.8-40.9
	C172.2,82.1,172.5,80.8,172.5,79.5z M121.3,110.6L105.5,138c-0.5,0.8-1.1,1.2-1.6,1.5c-0.9,0.3-1.9,0.3-2.8,0
	c-0.6-0.2-1.2-0.7-1.6-1.5l-15.8-27.4h0.1H121.3L121.3,110.6z M42,80.4c-0.3-0.9-0.3-1.9,0-2.8c0.2-0.6,0.7-1.2,1.5-1.6l27.4-15.8
	v0.1v37.5v0.1L43.5,82C42.7,81.6,42.3,81,42,80.4z M83.7,47.4L99.5,20c0.4-0.8,1-1.2,1.6-1.4c0.9-0.3,1.9-0.3,2.8,0
	c0.6,0.2,1.2,0.7,1.6,1.5l15.8,27.4h-0.1H83.7L83.7,47.4z M124.8,97.8c0,1.9-1.6,3.5-3.5,3.5H83.7c-1.9,0-3.5-1.6-3.5-3.5V60.2
	c0-1.9,1.6-3.5,3.5-3.5h37.6c1.9,0,3.5,1.6,3.5,3.5V97.8z M134.1,97.8L134.1,97.8V60.2v-0.1L161.5,76c0.8,0.4,1.2,1,1.4,1.6
	c0.3,0.9,0.3,1.9,0,2.8c-0.2,0.6-0.7,1.2-1.5,1.6L134.1,97.8z M146.4,37.4l10.4,25.1l-23.9-13.8L119,24.7l25.1,10.4
	C145.1,35.6,146,36.4,146.4,37.4z M58.6,37.4c0.4-1,1.2-1.8,2.2-2.2L86,24.7L72.2,48.7L48.2,62.5L58.6,37.4z M58.6,120.6L48.2,95.5
	l23.9,13.8L86,133.3l-25.1-10.4C59.9,122.4,59,121.6,58.6,120.6z M146.4,120.6c-0.4,1-1.2,1.8-2.2,2.2L119,133.3l13.8-23.9
	l23.9-13.8L146.4,120.6z"/>
</svg>
