<?xml version="1.0" encoding="utf-8"?>
<!-- Generator: Adobe Illustrator 19.2.0, SVG Export Plug-In . SVG Version: 6.00 Build 0)  -->
<svg version="1.1" id="Layer_1" xmlns="http://www.w3.org/2000/svg" xmlns:xlink="http://www.w3.org/1999/xlink" x="0px" y="0px"
	 viewBox="0 0 58 56" style="enable-background:new 0 0 58 56;" xml:space="preserve">
<style type="text/css">
	.st0{opacity:0.67;}
	.st1{fill:#444444;}
</style>
<g class="st0">
	<path class="st1" d="M49,17c0.1,0,0.3,0,0.4-0.1c0.4-0.2,0.6-0.5,0.6-0.9V5c0-0.6-0.4-1-1-1H38c-0.4,0-0.8,0.2-0.9,0.6
		C37,4.7,37,4.8,37,4.9l11.4,11.8C48.6,16.9,48.8,17,49,17z"/>
	<polygon class="st1" points="8,27 8,56 22,56 22,38 36,38 36,56 50,56 50,27 29,5.3 	"/>
	<path class="st1" d="M57.7,29.3l-28-29c-0.4-0.4-1.1-0.4-1.4,0l-28,29C0,29.6-0.1,30,0.1,30.4c0.1,0.1,0.1,0.2,0.2,0.3c0,0,0,0,0,0
		c0.4,0.3,1,0.3,1.4,0c0,0,0,0,0,0L8,24.2v0L29,2.4l27.3,28.3c0.4,0.4,1,0.4,1.4,0c0,0,0,0,0,0C58.1,30.3,58.1,29.7,57.7,29.3z"/>
</g>
</svg>
