<?xml version="1.0" encoding="utf-8"?>
<!-- Generator: Adobe Illustrator 20.1.0, SVG Export Plug-In . SVG Version: 6.00 Build 0)  -->
<svg version="1.1" id="Layer_1" xmlns="http://www.w3.org/2000/svg" xmlns:xlink="http://www.w3.org/1999/xlink" x="0px" y="0px"
	 viewBox="0 0 205 158" style="enable-background:new 0 0 205 158;" xml:space="preserve">
<style type="text/css">
	.st0{fill:#EDF4FE;}
	.st1{fill:#03037C;}
	.st2{fill:#FFFFFF;}
	.st3{fill:#0F8706;}
</style>
<rect class="st0" width="205" height="158"/>
<g>
	<path class="st1" d="M118.5,125V25v-2h-84c-1.1,0-2,0.9-2,2v100c0,11.1,6.9,18,18,18h75.3C121.9,139.9,118.5,134.5,118.5,125z
		 M48.5,53c0-1.1,0.9-2,2-2h28c1.1,0,2,0.9,2,2v32c0,1.1-0.9,2-2,2h-28c-1.1,0-2-0.9-2-2V53z M102.5,119h-52c-1.1,0-2-0.9-2-2
		s0.9-2,2-2h52c1.1,0,2,0.9,2,2S103.6,119,102.5,119z M102.5,111h-52c-1.1,0-2-0.9-2-2s0.9-2,2-2h52c1.1,0,2,0.9,2,2
		S103.6,111,102.5,111z M102.5,103h-52c-1.1,0-2-0.9-2-2s0.9-2,2-2h52c1.1,0,2,0.9,2,2S103.6,103,102.5,103z M102.5,95h-52
		c-1.1,0-2-0.9-2-2s0.9-2,2-2h52c1.1,0,2,0.9,2,2S103.6,95,102.5,95z M102.5,87h-16c-1.1,0-2-0.9-2-2s0.9-2,2-2h16c1.1,0,2,0.9,2,2
		S103.6,87,102.5,87z M102.5,79h-16c-1.1,0-2-0.9-2-2s0.9-2,2-2h16c1.1,0,2,0.9,2,2S103.6,79,102.5,79z M102.5,71h-16
		c-1.1,0-2-0.9-2-2s0.9-2,2-2h16c1.1,0,2,0.9,2,2S103.6,71,102.5,71z M102.5,63h-12c-1.1,0-2-0.9-2-2s0.9-2,2-2h12c1.1,0,2,0.9,2,2
		S103.6,63,102.5,63z M102.5,43h-52c-1.1,0-2-0.9-2-2s0.9-2,2-2h52c1.1,0,2,0.9,2,2S103.6,43,102.5,43z"/>
	<path class="st1" d="M150.5,39h-16v-6c0-1.1-0.9-2-2-2h-8c-1.1,0-2,0.9-2,2v92c0,1,0.1,1.9,0.1,2.8c0,0.2,0,0.3,0,0.5
		c1.3,11.7,9.2,14.1,12.4,14.5c0,0,0.1,0,0.1,0c0.7,0.1,1.5,0.1,2.2,0.1c10.3,0,15-9.3,15-18V41C152.5,39.9,151.6,39,150.5,39z
		 M138.5,124.9c0,1.2-0.9,2.1-2,2.1s-2-0.9-2-2.1V53v-4h4V124.9z"/>
</g>
<circle class="st2" cx="148.4" cy="49" r="40"/>
<path class="st3" d="M177.7,21.8c0,0.2,0.1,0.4,0.1,0.6c0,3-2.4,9.9-9.2,13.2c-6.7-1.7-13.5,3.4-11.8,3.4s3.4,6.7,3.4,6.7
	c1.7,1.7,5,0,5,0c4.2,4.2-6.7,11.8-6.7,13.4c0,1.7,4.2,2.5,1.7,5c-2.5,2.5-5,3.4-5,3.4c0,8.4-8.4,8.4-10.1,8.4s-5-6.7-5-8.4
	c0-1.7,1.7-3.4,1.7-5c0-1.7-3.4-5-3.4-5c0-6.7-5-5-10.1-5c-5,0-5-6.7-5-6.7s0-11.8,8.4-13.4c8.4-1.7,8.4,1.7,8.4,1.7
	c3.4,3.4,10.1,0,13.5,0c0,0,1.7-11.8-1.7-10.1c-3.4,1.7-6.4,0.4-6.7-3.4c-0.5-5.3,14-8.8,16.7-8.8c0.4,0,0.8,0,1.2,0.1
	C158.5,10,153.6,9,148.4,9c-22.1,0-40,17.9-40,40s17.9,40,40,40s40-17.9,40-40C188.4,38.5,184.4,28.9,177.7,21.8z"/>
</svg>
