<?xml version="1.0" encoding="utf-8"?>
<!-- Generator: Adobe Illustrator 20.1.0, SVG Export Plug-In . SVG Version: 6.00 Build 0)  -->
<svg version="1.1" id="Layer_1" xmlns="http://www.w3.org/2000/svg" xmlns:xlink="http://www.w3.org/1999/xlink" x="0px" y="0px"
	 viewBox="0 0 205 158" style="enable-background:new 0 0 205 158;" xml:space="preserve">
<style type="text/css">
	.st0{fill:#EDF4FE;}
	.st1{fill:#F7931E;stroke:#000000;stroke-width:3;stroke-miterlimit:10;}
	.st2{fill:#0055AA;stroke:#000000;stroke-width:2;stroke-miterlimit:10;}
	.st3{fill:#F15A24;}
	.st4{fill:#0088FF;stroke:#000000;stroke-width:3;stroke-miterlimit:10;}
	.st5{fill:#003366;stroke:#000000;stroke-width:3;stroke-miterlimit:10;}
	.st6{fill:#00FF00;stroke:#000000;stroke-width:3;stroke-miterlimit:10;}
	.st7{fill:#FF0000;stroke:#000000;stroke-width:3;stroke-miterlimit:10;}
	.st8{fill:#0000FF;stroke:#000000;stroke-width:3;stroke-miterlimit:10;}
	.st9{fill:#55BBFF;stroke:#020202;stroke-width:3;stroke-miterlimit:10;}
	.st10{fill:#A3BCCC;stroke:#000000;stroke-width:3;stroke-miterlimit:10;}
	.st11{fill:#7AC943;stroke:#000000;stroke-width:3;stroke-miterlimit:10;}
	.st12{fill:#58595B;}
</style>
<rect y="-0.5" class="st0" width="205" height="158"/>
<g>
	<path class="st12" d="M136.8,86.4c-6.2,0-11.2,5-11.2,11.2c0,6.2,5,11.2,11.2,11.2c6.2,0,11.2-5,11.2-11.2
		C148,91.4,143,86.4,136.8,86.4z"/>
	<circle class="st12" cx="114.8" cy="105" r="5.9"/>
	<path class="st12" d="M143.6,8.5c-7.9,0-14.5,2.7-20.5,8.4c-4.2-1.9-8.4-2.9-12.5-2.9c-11.1,0-21,7.6-25.3,19.3
		c-1.5,4-2.1,8-2,11.8c0.5,0,0.9-0.1,1.4-0.1c12.6,0,22.1,5.5,24.2,14.1c0.9,3.7,0.8,7.5-0.3,11.6c2,0.6,3.6,0.9,4.6,1.1
		c3.3,5.6,9.4,9,16.2,9c5.9,0,11.7-3.3,15.9-8.8c9.4-0.3,17.3-3.5,22.8-9.5c5.1-5.5,7.8-13,7.8-21.1C176,25.5,164.6,8.5,143.6,8.5z
		 M114.8,49.1c-3.2,0-5.9-2.6-5.9-5.9c0-3.2,2.6-5.9,5.9-5.9c3.2,0,5.9,2.6,5.9,5.9C120.6,46.4,118,49.1,114.8,49.1z M132.4,49.1
		c-3.2,0-5.9-2.6-5.9-5.9c0-3.2,2.6-5.9,5.9-5.9c3.2,0,5.9,2.6,5.9,5.9C138.3,46.4,135.7,49.1,132.4,49.1z M150.1,49.1
		c-3.2,0-5.9-2.6-5.9-5.9c0-3.2,2.6-5.9,5.9-5.9c3.2,0,5.9,2.6,5.9,5.9C155.9,46.4,153.3,49.1,150.1,49.1z"/>
	<path class="st12" d="M122.9,125.2c-1.5-1-3.3-2.1-5.6-3.3c-6.2-3.5-13.8-7.1-20.7-10v-1.6v-6.2v-1.1c0.5-0.4,1-0.9,1.6-1.6
		c0,0,0-0.1,0.1-0.1c0.2-0.3,0.5-0.6,0.7-1c0-0.1,0.1-0.2,0.1-0.2c0.2-0.4,0.4-0.8,0.6-1.2c0.1-0.1,0.1-0.2,0.2-0.3
		c0.2-0.5,0.4-1,0.6-1.5c0-0.1,0.1-0.2,0.1-0.3c0.2-0.7,0.4-1.4,0.6-2.2c0,0,0,0,0,0c0.2-0.7,0.3-1.5,0.4-2.4c0-0.3,0.1-0.6,0.1-0.9
		c0.1-0.8,0.2-1.6,0.2-2.4c0.9-0.5,1.6-1.3,2.2-2.3c0,0,0,0,0,0c0.2-0.3,0.3-0.6,0.5-0.9c0-0.1,0.1-0.1,0.1-0.2
		c0.1-0.3,0.2-0.6,0.3-0.9c0-0.1,0.1-0.2,0.1-0.2c0.1-0.3,0.2-0.6,0.2-0.9c0-0.1,0-0.2,0.1-0.3c0.1-0.3,0.1-0.6,0.1-1
		c0-0.1,0-0.2,0-0.3c0-0.4,0.1-0.8,0.1-1.2c0-0.7-0.1-1.3-0.2-2c0-0.1,0-0.2-0.1-0.3c-0.1-0.6-0.3-1.2-0.5-1.7c0,0,0-0.1-0.1-0.1
		c-0.2-0.5-0.5-0.9-0.8-1.3c0-0.1-0.1-0.1-0.1-0.2c-0.4-0.4-0.8-0.8-1.2-1.1c0.2-0.5,0.4-1,0.6-1.6c0.4-1.1,0.8-2.1,1-3.2
		c0,0,0,0,0,0l0,0c0.8-3.2,0.9-6.2,0.2-9c-1.6-6.4-9.3-10.6-19.7-10.6c-1,0-1.9,0-2.8,0.1c-0.3,0-0.6,0.1-0.8,0.1
		c-0.5,0.1-1.1,0.1-1.6,0.2c-0.5,0.1-1,0.2-1.5,0.3c-0.3,0.1-0.6,0.1-0.9,0.2c-0.6,0.1-1.2,0.3-1.7,0.5c-0.5,0.2-1,0.3-1.5,0.5
		c-0.2,0.1-0.4,0.2-0.6,0.2c-3,1.3-5.4,3.1-6.8,5.4c0,0,0,0.1-0.1,0.1c-0.2,0.3-0.4,0.7-0.6,1c-0.4,0-0.9,0-1.3,0
		c-0.6,0-1.1,0.1-1.6,0.2c-0.1,0-0.2,0-0.3,0.1c-0.4,0.1-0.8,0.3-1.1,0.5c-0.1,0.1-0.2,0.1-0.3,0.2c-0.3,0.2-0.6,0.4-0.8,0.6
		c-0.1,0.1-0.1,0.1-0.2,0.2c-0.2,0.2-0.4,0.5-0.6,0.7c-0.3,0.4-0.5,0.9-0.6,1.3c-0.1,0.2-0.1,0.4-0.1,0.6c-0.1,0.3-0.1,0.6-0.1,0.9
		c0,0.2,0,0.5,0,0.7c0,0.3,0,0.5,0,0.8c0,0.3,0.1,0.6,0.1,0.8c0,0.3,0.1,0.5,0.1,0.8c0.1,0.3,0.1,0.6,0.2,0.9
		c0.1,0.3,0.2,0.5,0.2,0.8c0.1,0.3,0.2,0.6,0.3,0.8c0.1,0.3,0.2,0.7,0.4,1c0.1,0.2,0.1,0.4,0.2,0.6c0.4,1.1,0.9,2.2,1.3,3.1
		c0,0,0,0,0,0.1c-0.8,0.5-1.6,1.2-2.2,2.1c-1,1.4-1.5,3.3-1.5,5.3c0,0.7,0.1,1.4,0.2,2.1c0,0.1,0,0.2,0.1,0.4
		c0.1,0.6,0.3,1.1,0.6,1.7c0.1,0.2,0.2,0.3,0.2,0.5c0.2,0.5,0.5,0.9,0.8,1.3c0.1,0.2,0.3,0.3,0.4,0.4c0.3,0.3,0.6,0.5,0.9,0.8
		c0.4,0.3,0.8,0.5,1.3,0.7c0,0.9,0.1,1.7,0.3,2.5c0,0.3,0.1,0.5,0.1,0.8c1,6.5,3.9,9.4,5.8,10.7v1.2v6v1.6
		c-6.9,2.8-14.5,6.5-20.7,10c-2.2,1.3-4.1,2.4-5.6,3.3c-4.4,3-6.4,5.4-6.4,6.9v14c0,1.3,1,2.3,2.3,2.3H127c1.3,0,2.3-1,2.3-2.3v-14
		C129.3,130.7,127.2,128.3,122.9,125.2z"/>
</g>
</svg>
